<svg xmlns="http://www.w3.org/2000/svg" version="1.1" xmlns:xlink="http://www.w3.org/1999/xlink" xmlns:svgjs="http://svgjs.dev/svgjs" width="1000" height="1000" viewBox="0 0 1000 1000"><rect width="1000" height="1000" fill="#000000"></rect><g transform="matrix(0.7,0,0,0.7,149.57575757575756,282.1265587044535)"><svg viewBox="0 0 396 247" data-background-color="#ffffff" preserveAspectRatio="xMidYMid meet" height="623" width="1000" xmlns="http://www.w3.org/2000/svg" xmlns:xlink="http://www.w3.org/1999/xlink"><defs></defs><g id="tight-bounds" transform="matrix(1,0,0,1,0.2400000000000091,-0.09999999999999432)"><svg viewBox="0 0 395.52 247.2" height="247.2" width="395.52"><g><svg></svg></g><g><svg viewBox="0 0 395.52 247.2" height="247.2" width="395.52"><g transform="matrix(3.595308078768468, 0, 0, 3.595308078768468, 70.30632586465542, 1)"><svg xmlns="http://www.w3.org/2000/svg" xmlns:xlink="http://www.w3.org/1999/xlink" version="1.1" x="0" y="0" viewBox="0.5999999046325684 1.9000000953674316 70.9000015258789 68.19999694824219" enable-background="new 0 0 72 72" xml:space="preserve" height="68.19999694824219" width="70.9000015258789" class="icon-none" data-fill-palette-color="accent" id="none"><g fill="#61777f" data-fill-palette-color="accent"><path fill="#ffffff" d="M55 70.1c9.1 0 16.5-7.3 16.5-16.3 0-9-7.4-16.3-16.5-16.3-9.1 0-16.5 7.3-16.5 16.3C38.5 62.8 45.9 70.1 55 70.1zM53.4 43.2c0-0.9 0.7-1.6 1.6-1.6 0.9 0 1.6 0.7 1.6 1.6v8c0 0.6 0.4 1 1 1h5.8c0.9 0 1.6 0.7 1.6 1.6 0 0.9-0.7 1.6-1.6 1.6h-8.1c-1.1 0-1.9-0.9-1.9-1.9V43.2z" data-fill-palette-color="accent"></path><path fill="#ffffff" d="M47.4 1.9c-0.7 0-1.2 0.6-1.2 1.3v14.3c0 0.7 0.6 1.3 1.2 1.3 0.7 0 1.2-0.6 1.2-1.3V3.3C48.6 2.5 48.1 1.9 47.4 1.9z" data-fill-palette-color="accent"></path><path fill="#ffffff" d="M12.2 1.9c-0.7 0-1.2 0.6-1.2 1.3v14.3c0 0.7 0.6 1.3 1.2 1.3 0.7 0 1.2-0.6 1.2-1.3V3.3C13.4 2.5 12.9 1.9 12.2 1.9z" data-fill-palette-color="accent"></path><path fill="#ffffff" d="M35.5 53.8c0-10.6 8.8-19.3 19.5-19.3 0.9 0 1.9 0.1 2.8 0.2 0.7 0.1 1.3-0.4 1.3-1.2V12.3c0-1.2-0.9-2.2-2-2.2h-5c-0.5 0-0.9 0.4-0.9 1v6.3c0 2.1-1.4 4-3.3 4.2-2.2 0.2-4.1-1.6-4.1-4V11c0-0.5-0.4-1-0.9-1H16.8c-0.5 0-0.9 0.4-0.9 1v6.3c0 2.1-1.4 4-3.3 4.2-2.2 0.2-4.1-1.6-4.1-4V11c0-0.5-0.4-1-0.9-1h-5c-1.1 0-2 1-2 2.2V63c0 1.2 0.9 2.2 2 2.2h34.6c0.9 0 1.5-1 1-1.7C36.5 60.6 35.5 57.3 35.5 53.8zM44.7 27.8c0-0.3 0.2-0.6 0.5-0.6H52c0.3 0 0.5 0.2 0.5 0.6v5.1c0 0.3-0.2 0.6-0.5 0.6h-6.8c-0.3 0-0.5-0.2-0.5-0.6V27.8zM14.9 57.3c0 0.3-0.2 0.6-0.5 0.6H7.6c-0.3 0-0.5-0.2-0.5-0.6v-5.1c0-0.3 0.2-0.6 0.5-0.6h6.8c0.3 0 0.5 0.2 0.5 0.6V57.3zM14.9 45.1c0 0.3-0.2 0.6-0.5 0.6H7.6c-0.3 0-0.5-0.3-0.5-0.6V40c0-0.3 0.2-0.6 0.5-0.6h6.8c0.3 0 0.5 0.2 0.5 0.6V45.1zM14.9 32.9c0 0.3-0.2 0.6-0.5 0.6H7.6c-0.3 0-0.5-0.2-0.5-0.6v-5.1c0-0.3 0.2-0.6 0.5-0.6h6.8c0.3 0 0.5 0.2 0.5 0.6V32.9zM33.7 57.3c0 0.3-0.2 0.6-0.5 0.6h-6.8c-0.3 0-0.5-0.2-0.5-0.6v-5.1c0-0.3 0.2-0.6 0.5-0.6h6.8c0.3 0 0.5 0.2 0.5 0.6V57.3zM33.7 45.1c0 0.3-0.2 0.6-0.5 0.6h-6.8c-0.3 0-0.5-0.3-0.5-0.6V40c0-0.3 0.2-0.6 0.5-0.6h6.8c0.3 0 0.5 0.2 0.5 0.6V45.1zM33.7 32.9c0 0.3-0.2 0.6-0.5 0.6h-6.8c-0.3 0-0.5-0.2-0.5-0.6v-5.1c0-0.3 0.2-0.6 0.5-0.6h6.8c0.3 0 0.5 0.2 0.5 0.6V32.9z" data-fill-palette-color="accent"></path></g></svg></g><rect width="348.05760000000004" height="82.0314672354227" fill="#ffffff" y="82.58426638228865" x="23.731199999999973" data-fill-palette-color="quaternary"></rect><g transform="matrix(1,0,0,1,39.55199999999999,88.40707154981783)"><svg viewBox="0 0 316.416 70.38585690036432" height="70.38585690036432" width="316.416"><g><svg viewBox="0 0 316.416 70.38585690036432" height="70.38585690036432" width="316.416"><g><svg viewBox="0 0 316.416 70.38585690036432" height="70.38585690036432" width="316.416"><g><svg viewBox="0 0 316.416 70.38585690036432" height="70.38585690036432" width="316.416"><g><svg viewBox="0 0 316.416 70.38585690036432" height="70.38585690036432" width="316.416"><g><svg viewBox="0 0 316.416 39.902998598785615" height="39.902998598785615" width="316.416"><g transform="matrix(1,0,0,1,0,0)"><svg width="316.416" viewBox="0.3500000238418579 -38.849998474121094 321.1199951171875 40.5" height="39.902998598785615" data-palette-color="#61777f"><path d="M41.3-36.1L47-36.1Q45.2-31.35 43.18-26.13 41.15-20.9 39.18-15.85 37.2-10.8 35.45-6.25 33.7-1.7 32.5 1.6L32.5 1.6 24.4-18.65Q24.25-19.05 24.15-19.25 24.05-19.45 23.95-19.85L23.95-19.85Q23.95-19.65 23.9-19.48 23.85-19.3 23.8-19.1L23.8-19.1Q23.75-18.9 23.7-18.7L23.7-18.7Q22-14.8 20.35-11.05L20.35-11.05Q19.65-9.45 18.9-7.75 18.15-6.05 17.45-4.38 16.75-2.7 16.07-1.15 15.4 0.4 14.85 1.65L14.85 1.65Q11.25-7.8 7.6-17.2 3.95-26.6 0.35-36.1L0.35-36.1 6.5-36.1Q7.7-32.8 8.97-29.45 10.25-26.1 11.38-23 12.5-19.9 13.4-17.25 14.3-14.6 14.8-12.75L14.8-12.75 15.2-11Q15.25-11.25 15.45-11.83 15.65-12.4 15.75-12.65L15.75-12.65Q15.8-12.85 16.1-13.55 16.4-14.25 16.8-15.23 17.2-16.2 17.7-17.35 18.2-18.5 18.7-19.7L18.7-19.7Q19.9-22.45 21.35-25.8L21.35-25.8Q20.5-28.15 19.85-30.2L19.85-30.2Q19.25-31.95 18.73-33.65 18.2-35.35 17.95-36.1L17.95-36.1 23.2-36.1Q25.35-30.45 27.2-25.65L27.2-25.65Q27.95-23.6 28.73-21.55 29.5-19.5 30.18-17.75 30.85-16 31.35-14.68 31.85-13.35 32.05-12.75L32.05-12.75Q32.2-12.3 32.27-11.88 32.35-11.45 32.45-11L32.45-11Q32.55-11.45 32.63-11.9 32.7-12.35 32.8-12.75L32.8-12.75Q33.25-14.7 34.2-17.4 35.15-20.1 36.33-23.2 37.5-26.3 38.8-29.63 40.1-32.95 41.3-36.1L41.3-36.1ZM60.3-5.55L63.5-2.45Q62-1.1 59.85-0.3 57.7 0.5 55.45 0.5L55.45 0.5Q53.15 0.5 51.12-0.38 49.1-1.25 47.6-2.73 46.1-4.2 45.22-6.2 44.35-8.2 44.35-10.45L44.35-10.45Q44.35-12.7 45.22-14.7 46.1-16.7 47.6-18.2 49.1-19.7 51.07-20.58 53.05-21.45 55.3-21.45L55.3-21.45Q58.85-21.45 61.47-19.33 64.1-17.2 65.25-13.75L65.25-13.75Q63.7-13.2 61.7-12.4 59.7-11.6 57.55-10.73 55.4-9.85 53.25-9 51.1-8.15 49.25-7.45L49.25-7.45Q50.1-5.75 51.72-4.73 53.35-3.7 55.35-3.7L55.35-3.7Q56.7-3.7 58.07-4.2 59.45-4.7 60.3-5.55L60.3-5.55ZM59.9-14.75L59.9-14.75Q59.3-16 58-16.63 56.7-17.25 55.35-17.25L55.35-17.25Q53.9-17.25 52.67-16.7 51.45-16.15 50.55-15.23 49.65-14.3 49.12-13.1 48.6-11.9 48.6-10.65L48.6-10.65Q48.6-10.4 48.62-10.3 48.65-10.2 48.65-10.15L48.65-10.15Q49.95-10.65 51.47-11.28 53-11.9 54.5-12.53 56-13.15 57.4-13.73 58.8-14.3 59.9-14.75ZM91.3-10.4L91.3-10.4Q91.3-8.05 90.5-6.05 89.7-4.05 88.25-2.6 86.8-1.15 84.77-0.33 82.75 0.5 80.35 0.5L80.35 0.5Q79.1 0.5 77.97 0.23 76.85-0.05 75.9-0.53 74.95-1 74.25-1.58 73.55-2.15 73.2-2.75L73.2-2.75Q73.2-2.5 73.22-2.23 73.25-1.95 73.25-1.7L73.25-1.7 73.25 0 68.95 0 68.95-38.85 73.25-38.85 73.25-17.85Q73.65-18.45 74.32-19.07 75-19.7 75.92-20.23 76.85-20.75 78-21.1 79.15-21.45 80.55-21.45L80.55-21.45Q82.95-21.45 84.92-20.68 86.9-19.9 88.32-18.48 89.75-17.05 90.52-15 91.3-12.95 91.3-10.4ZM86.65-10.5L86.65-10.5Q86.65-11.95 86.2-13.18 85.75-14.4 84.9-15.3 84.05-16.2 82.85-16.73 81.65-17.25 80.15-17.25L80.15-17.25Q78.65-17.25 77.37-16.73 76.1-16.2 75.2-15.3 74.3-14.4 73.77-13.18 73.25-11.95 73.25-10.5L73.25-10.5Q73.25-9.05 73.77-7.8 74.3-6.55 75.2-5.65 76.1-4.75 77.37-4.23 78.65-3.7 80.15-3.7L80.15-3.7Q81.65-3.7 82.85-4.23 84.05-4.75 84.9-5.68 85.75-6.6 86.2-7.83 86.65-9.05 86.65-10.5ZM99.19-16.35L99.19-16.35Q100.84-19.35 102.89-22.38 104.94-25.4 106.54-28.45L106.54-28.45 96.39-28.45 96.39-32.95 113.84-32.95Q112.09-29.95 110.19-26.95 108.29-23.95 106.54-20.95L106.54-20.95Q109.74-19.65 111.72-16.95 113.69-14.25 113.69-10.65L113.69-10.65Q113.69-8.4 112.79-6.38 111.89-4.35 110.37-2.85 108.84-1.35 106.82-0.48 104.79 0.4 102.54 0.4L102.54 0.4Q100.09 0.4 97.99-0.6 95.89-1.6 94.34-3.2L94.34-3.2 97.69-6.35Q98.59-5.25 99.82-4.65 101.04-4.05 102.49-4.05L102.49-4.05Q103.84-4.05 105.04-4.58 106.24-5.1 107.14-6 108.04-6.9 108.57-8.1 109.09-9.3 109.09-10.65L109.09-10.65Q109.09-12 108.57-13.18 108.04-14.35 107.14-15.25 106.24-16.15 105.04-16.65 103.84-17.15 102.49-17.15L102.49-17.15Q100.64-17.15 99.19-16.35ZM147.94-34.25L147.94-34.25 145.99-29.8Q143.94-30.55 141.91-31 139.89-31.45 138.04-31.45L138.04-31.45Q134.89-31.45 133.01-30.15 131.14-28.85 131.14-26.85L131.14-26.85Q131.14-25.15 132.49-24.13 133.84-23.1 135.84-22.28 137.84-21.45 140.19-20.63 142.54-19.8 144.54-18.5 146.54-17.2 147.89-15.23 149.24-13.25 149.24-10.15L149.24-10.15Q149.24-7.75 148.36-5.83 147.49-3.9 145.76-2.5 144.04-1.1 141.46-0.35 138.89 0.4 135.44 0.4L135.44 0.4Q133.24 0.4 131.46 0.1 129.69-0.2 128.26-0.68 126.84-1.15 125.76-1.7 124.69-2.25 123.94-2.7L123.94-2.7 126.34-7.45Q128.34-6.3 130.79-5.6 133.24-4.9 135.24-4.9L135.24-4.9Q136.24-4.9 137.71-5.15 139.19-5.4 140.54-6.03 141.89-6.65 142.86-7.7 143.84-8.75 143.84-10.35L143.84-10.35Q143.84-11.8 143.06-12.83 142.29-13.85 141.01-14.63 139.74-15.4 138.11-16.03 136.49-16.65 134.79-17.32 133.09-18 131.46-18.75 129.84-19.5 128.56-20.58 127.29-21.65 126.51-23.08 125.74-24.5 125.74-26.5L125.74-26.5Q125.74-28.35 126.49-30.15 127.24-31.95 128.74-33.35 130.24-34.75 132.46-35.6 134.69-36.45 137.64-36.45L137.64-36.45Q139.44-36.45 141.16-36.15 142.89-35.85 144.29-35.48 145.69-35.1 146.66-34.75 147.64-34.4 147.94-34.25ZM167.74-5.15L167.74-5.15Q168.44-4.3 169.06-3.53 169.69-2.75 170.34-1.9L170.34-1.9Q168.94-0.8 167.19-0.15 165.44 0.5 163.39 0.5L163.39 0.5Q161.09 0.5 159.06-0.38 157.04-1.25 155.54-2.75 154.04-4.25 153.16-6.25 152.29-8.25 152.29-10.5L152.29-10.5Q152.29-12.75 153.16-14.75 154.04-16.75 155.54-18.23 157.04-19.7 159.06-20.58 161.09-21.45 163.39-21.45L163.39-21.45Q165.49-21.45 167.26-20.8 169.04-20.15 170.49-19.05L170.49-19.05 167.74-15.8Q166.89-16.5 165.79-16.88 164.69-17.25 163.39-17.25L163.39-17.25Q161.89-17.25 160.64-16.73 159.39-16.2 158.46-15.3 157.54-14.4 157.04-13.18 156.54-11.95 156.54-10.5L156.54-10.5Q156.54-9.05 157.04-7.83 157.54-6.6 158.46-5.68 159.39-4.75 160.64-4.23 161.89-3.7 163.39-3.7L163.39-3.7Q164.69-3.7 165.79-4.08 166.89-4.45 167.74-5.15ZM174.53 0L174.53-38.85 178.78-38.85 178.78-15.85Q179.88-18.35 181.88-19.88 183.88-21.4 187.03-21.45L187.03-21.45Q190.23-21.5 192.16-19.75 194.08-18 194.18-15.2L194.18-15.2 194.18 0 189.88 0 189.88-13.25Q189.78-14.85 188.78-15.98 187.78-17.1 185.63-17.2L185.63-17.2Q184.13-17.2 182.88-16.68 181.63-16.15 180.73-15.25 179.83-14.35 179.31-13.1 178.78-11.85 178.78-10.35L178.78-10.35 178.78 0 174.53 0ZM214.48-5.55L217.68-2.45Q216.18-1.1 214.03-0.3 211.88 0.5 209.63 0.5L209.63 0.5Q207.33 0.5 205.31-0.38 203.28-1.25 201.78-2.73 200.28-4.2 199.41-6.2 198.53-8.2 198.53-10.45L198.53-10.45Q198.53-12.7 199.41-14.7 200.28-16.7 201.78-18.2 203.28-19.7 205.26-20.58 207.23-21.45 209.48-21.45L209.48-21.45Q213.03-21.45 215.66-19.33 218.28-17.2 219.43-13.75L219.43-13.75Q217.88-13.2 215.88-12.4 213.88-11.6 211.73-10.73 209.58-9.85 207.43-9 205.28-8.15 203.43-7.45L203.43-7.45Q204.28-5.75 205.91-4.73 207.53-3.7 209.53-3.7L209.53-3.7Q210.88-3.7 212.26-4.2 213.63-4.7 214.48-5.55L214.48-5.55ZM214.08-14.75L214.08-14.75Q213.48-16 212.18-16.63 210.88-17.25 209.53-17.25L209.53-17.25Q208.08-17.25 206.86-16.7 205.63-16.15 204.73-15.23 203.83-14.3 203.31-13.1 202.78-11.9 202.78-10.65L202.78-10.65Q202.78-10.4 202.81-10.3 202.83-10.2 202.83-10.15L202.83-10.15Q204.13-10.65 205.66-11.28 207.18-11.9 208.68-12.53 210.18-13.15 211.58-13.73 212.98-14.3 214.08-14.75ZM221.73-10.45L221.73-10.45Q221.73-12.9 222.55-14.93 223.38-16.95 224.83-18.4 226.28-19.85 228.25-20.65 230.23-21.45 232.53-21.45L232.53-21.45Q234.08-21.45 235.3-21.08 236.53-20.7 237.4-20.18 238.28-19.65 238.88-19 239.48-18.35 239.78-17.85L239.78-17.85 239.78-38.85 244.08-38.85 244.08 0 239.78 0 239.78-1.55Q239.78-1.85 239.83-2.23 239.88-2.6 239.88-2.85L239.88-2.85Q239.38-2.25 238.7-1.68 238.03-1.1 237.13-0.6 236.23-0.1 235.05 0.2 233.88 0.5 232.38 0.5L232.38 0.5Q229.88 0.5 227.9-0.38 225.93-1.25 224.55-2.73 223.18-4.2 222.45-6.2 221.73-8.2 221.73-10.45ZM226.03-10.5L226.03-10.5Q226.03-9.05 226.55-7.8 227.08-6.55 227.98-5.65 228.88-4.75 230.13-4.23 231.38-3.7 232.88-3.7L232.88-3.7Q234.38-3.7 235.65-4.23 236.93-4.75 237.85-5.68 238.78-6.6 239.28-7.83 239.78-9.05 239.78-10.5L239.78-10.5Q239.78-11.95 239.28-13.18 238.78-14.4 237.85-15.3 236.93-16.2 235.65-16.73 234.38-17.25 232.88-17.25L232.88-17.25Q231.38-17.25 230.13-16.73 228.88-16.2 227.98-15.3 227.08-14.4 226.55-13.18 226.03-11.95 226.03-10.5ZM269.53-20.9L269.53 0.45 265.93 0.45 265.43-5.35Q264.28-2.8 262.2-1.15 260.13 0.5 256.93 0.5L256.93 0.5Q253.73 0.5 251.85-1.23 249.98-2.95 249.88-5.75L249.88-5.75 249.88-20.9 254.13-20.9 254.13-7.65Q254.23-6.1 255.25-5 256.28-3.9 258.43-3.75L258.43-3.75Q259.93-3.75 261.18-4.28 262.43-4.8 263.33-5.7 264.23-6.6 264.73-7.85 265.23-9.1 265.23-10.6L265.23-10.6 265.23-20.9 269.53-20.9ZM279.82-38.85L279.82 0 275.57 0 275.57-38.85 279.82-38.85ZM300.37-5.55L303.57-2.45Q302.07-1.1 299.92-0.3 297.77 0.5 295.52 0.5L295.52 0.5Q293.22 0.5 291.2-0.38 289.17-1.25 287.67-2.73 286.17-4.2 285.3-6.2 284.42-8.2 284.42-10.45L284.42-10.45Q284.42-12.7 285.3-14.7 286.17-16.7 287.67-18.2 289.17-19.7 291.15-20.58 293.12-21.45 295.37-21.45L295.37-21.45Q298.92-21.45 301.55-19.33 304.17-17.2 305.32-13.75L305.32-13.75Q303.77-13.2 301.77-12.4 299.77-11.6 297.62-10.73 295.47-9.85 293.32-9 291.17-8.15 289.32-7.45L289.32-7.45Q290.17-5.75 291.8-4.73 293.42-3.7 295.42-3.7L295.42-3.7Q296.77-3.7 298.15-4.2 299.52-4.7 300.37-5.55L300.37-5.55ZM299.97-14.75L299.97-14.75Q299.37-16 298.07-16.63 296.77-17.25 295.42-17.25L295.42-17.25Q293.97-17.25 292.75-16.7 291.52-16.15 290.62-15.23 289.72-14.3 289.2-13.1 288.67-11.9 288.67-10.65L288.67-10.65Q288.67-10.4 288.7-10.3 288.72-10.2 288.72-10.15L288.72-10.15Q290.02-10.65 291.55-11.28 293.07-11.9 294.57-12.53 296.07-13.15 297.47-13.73 298.87-14.3 299.97-14.75ZM321.47-21.45L320.52-15.95Q319.12-15.95 317.82-15.58 316.52-15.2 315.49-14.45 314.47-13.7 313.87-12.58 313.27-11.45 313.27-10L313.27-10 313.27 0 309.02 0 309.02-20.9 312.77-20.9Q312.87-19.35 312.94-18.07 313.02-16.8 313.12-15.55L313.12-15.55Q313.77-16.9 314.82-18 315.87-19.1 317.07-19.85 318.27-20.6 319.42-21.03 320.57-21.45 321.47-21.45L321.47-21.45Z" opacity="1" transform="matrix(1,0,0,1,0,0)" fill="#ffffff" class="undefined-text-0" data-fill-palette-color="primary" id="text-0"></path></svg></g></svg></g><g transform="matrix(1,0,0,1,0,45.725803766314804)"><svg viewBox="0 0 316.416 24.66005313404951" height="24.66005313404951" width="316.416"><g transform="matrix(1,0,0,1,0,0)"><svg width="316.416" viewBox="1.6600000858306885 -37.5 487.42999267578125 37.9900016784668" height="24.66005313404951" data-palette-color="#61777f"><path d="M21.44-9.38L21.44-9.38Q21.44-10.57 20.92-11.45 20.41-12.33 18.96-13.12 17.5-13.92 14.67-14.82L14.67-14.82Q12.28-15.6 10.12-16.59 7.96-17.58 6.3-18.9 4.64-20.21 3.69-21.97 2.73-23.73 2.73-26.07L2.73-26.07Q2.73-29.08 4.44-31.31 6.15-33.54 9.14-34.79 12.13-36.04 15.99-36.04L15.99-36.04Q19.95-36.04 22.9-34.64 25.85-33.25 27.48-30.77 29.1-28.3 29.1-25.05L29.1-25.05 21.46-25.05Q21.46-26.49 20.85-27.6 20.24-28.71 19.01-29.33 17.77-29.96 15.87-29.96L15.87-29.96Q14.04-29.96 12.82-29.42 11.6-28.88 11-28 10.4-27.12 10.4-26.03L10.4-26.03Q10.4-24.88 11.21-24.02 12.01-23.17 13.55-22.45 15.09-21.73 17.29-21.04L17.29-21.04Q21.17-19.87 23.8-18.29 26.44-16.7 27.77-14.54 29.1-12.38 29.1-9.42L29.1-9.42Q29.1-6.3 27.5-4.08 25.9-1.86 23-0.68 20.09 0.49 16.16 0.49L16.16 0.49Q13.48 0.49 10.9-0.21 8.33-0.9 6.24-2.36 4.15-3.81 2.91-6.03 1.66-8.25 1.66-11.3L1.66-11.3 9.35-11.3Q9.35-9.72 9.83-8.63 10.3-7.54 11.19-6.86 12.08-6.18 13.34-5.87 14.6-5.57 16.16-5.57L16.16-5.57Q17.99-5.57 19.15-6.07 20.31-6.57 20.87-7.43 21.44-8.3 21.44-9.38ZM47.34-5.44L47.34-5.44Q48.58-5.44 49.53-5.91 50.49-6.37 51.01-7.23 51.54-8.08 51.56-9.25L51.56-9.25 58.49-9.25Q58.47-6.4 57-4.2 55.54-2 53.05-0.76 50.56 0.49 47.46 0.49L47.46 0.49Q43.36 0.49 40.63-1.29 37.91-3.08 36.56-6.1 35.2-9.13 35.2-12.87L35.2-12.87 35.2-13.53Q35.2-17.29 36.56-20.31 37.91-23.34 40.63-25.12 43.36-26.9 47.43-26.9L47.43-26.9Q50.71-26.9 53.18-25.65 55.66-24.39 57.07-22.06 58.47-19.73 58.49-16.48L58.49-16.48 51.56-16.48Q51.54-17.72 51.06-18.74 50.58-19.75 49.63-20.36 48.68-20.97 47.29-20.97L47.29-20.97Q45.33-20.97 44.32-19.92 43.31-18.87 42.94-17.18 42.58-15.48 42.58-13.53L42.58-13.53 42.58-12.87Q42.58-10.89 42.93-9.19 43.28-7.5 44.32-6.47 45.36-5.44 47.34-5.44ZM72.41-37.5L72.41 0 65.01 0 65.01-37.5 72.41-37.5ZM71.36-14.09L69.38-13.99Q69.38-17.75 70.61-20.65 71.85-23.56 74.09-25.23 76.34-26.9 79.34-26.9L79.34-26.9Q81.95-26.9 83.92-25.89 85.88-24.88 86.99-22.62 88.11-20.36 88.11-16.58L88.11-16.58 88.11 0 80.71 0 80.71-16.63Q80.71-18.29 80.23-19.23 79.76-20.17 78.84-20.54 77.92-20.92 76.61-20.92L76.61-20.92Q75.14-20.92 74.14-20.42 73.14-19.92 72.52-18.99 71.89-18.07 71.63-16.81 71.36-15.55 71.36-14.09L71.36-14.09ZM108.39 0.49L108.39 0.49Q104.22 0.49 101.25-1.25 98.28-2.98 96.71-5.88 95.13-8.79 95.13-12.3L95.13-12.3 95.13-13.26Q95.13-17.21 96.64-20.3 98.14-23.39 100.92-25.15 103.7-26.9 107.56-26.9L107.56-26.9Q111.39-26.9 114.01-25.29 116.62-23.68 117.96-20.76 119.3-17.85 119.3-13.92L119.3-13.92 119.3-10.79 98.23-10.79 98.23-15.75 112.05-15.75 112.05-16.33Q112.05-17.7 111.56-18.75 111.08-19.8 110.09-20.39 109.1-20.97 107.51-20.97L107.51-20.97Q105.71-20.97 104.61-19.95 103.51-18.92 103.01-17.19 102.51-15.45 102.51-13.26L102.51-13.26 102.51-12.3Q102.51-10.28 103.26-8.74 104.02-7.2 105.44-6.34 106.85-5.47 108.85-5.47L108.85-5.47Q110.73-5.47 112.37-6.16 114.01-6.86 115.15-8.35L115.15-8.35 118.72-4.27Q117.47-2.49 114.87-1 112.27 0.49 108.39 0.49ZM141.44-5.88L141.44-37.5 148.87-37.5 148.87 0 142.2 0 141.44-5.88ZM124.87-12.89L124.87-13.4Q124.87-17.43 126.08-20.47 127.28-23.51 129.59-25.21 131.9-26.9 135.22-26.9L135.22-26.9Q138.32-26.9 140.41-25.13 142.49-23.36 143.7-20.3 144.91-17.24 145.38-13.35L145.38-13.35 145.38-12.74Q144.91-9.06 143.7-6.05 142.49-3.05 140.41-1.28 138.32 0.49 135.17 0.49L135.17 0.49Q131.9 0.49 129.59-1.26 127.28-3 126.08-6.03 124.87-9.06 124.87-12.89L124.87-12.89ZM132.24-13.4L132.24-12.89Q132.24-10.84 132.7-9.16 133.17-7.47 134.22-6.48 135.27-5.49 137.05-5.49L137.05-5.49Q138.81-5.49 139.93-6.29 141.05-7.08 141.64-8.5 142.23-9.91 142.32-11.77L142.32-11.77 142.32-14.31Q142.27-15.89 141.92-17.13 141.57-18.36 140.94-19.2 140.32-20.04 139.36-20.48 138.39-20.92 137.1-20.92L137.1-20.92Q135.34-20.92 134.27-19.93 133.19-18.95 132.72-17.25 132.24-15.55 132.24-13.4L132.24-13.4ZM172.47-6.37L172.47-26.42 179.85-26.42 179.85 0 172.94 0 172.47-6.37ZM173.3-11.84L175.43-11.89Q175.43-8.33 174.34-5.53 173.25-2.73 171.07-1.12 168.88 0.49 165.56 0.49L165.56 0.49Q161.66 0.49 159.23-1.79 156.8-4.08 156.8-9.33L156.8-9.33 156.8-26.42 164.17-26.42 164.17-9.28Q164.17-7.93 164.62-7.09 165.08-6.25 165.89-5.87 166.71-5.49 167.76-5.49L167.76-5.49Q169.88-5.49 171.09-6.32 172.3-7.15 172.8-8.59 173.3-10.03 173.3-11.84L173.3-11.84ZM195.59-37.5L195.59 0 188.19 0 188.19-37.5 195.59-37.5ZM216.36 0.49L216.36 0.49Q212.19 0.49 209.22-1.25 206.26-2.98 204.68-5.88 203.11-8.79 203.11-12.3L203.11-12.3 203.11-13.26Q203.11-17.21 204.61-20.3 206.11-23.39 208.89-25.15 211.68-26.9 215.53-26.9L215.53-26.9Q219.37-26.9 221.98-25.29 224.59-23.68 225.93-20.76 227.28-17.85 227.28-13.92L227.28-13.92 227.28-10.79 206.21-10.79 206.21-15.75 220.03-15.75 220.03-16.33Q220.03-17.7 219.54-18.75 219.05-19.8 218.06-20.39 217.07-20.97 215.48-20.97L215.48-20.97Q213.68-20.97 212.58-19.95 211.48-18.92 210.98-17.19 210.48-15.45 210.48-13.26L210.48-13.26 210.48-12.3Q210.48-10.28 211.24-8.74 211.99-7.2 213.41-6.34 214.83-5.47 216.83-5.47L216.83-5.47Q218.71-5.47 220.34-6.16 221.98-6.86 223.13-8.35L223.13-8.35 226.69-4.27Q225.45-2.49 222.85-1 220.25 0.49 216.36 0.49ZM263.36-6.23L263.36-17.6Q263.36-19.38 262.48-20.43 261.6-21.48 259.67-21.48L259.67-21.48Q258.57-21.48 257.77-21.12 256.96-20.75 256.54-20.08 256.13-19.41 256.13-18.43L256.13-18.43 248.76-18.43Q248.76-20.78 250.15-22.69 251.54-24.61 254.08-25.76 256.62-26.9 260.06-26.9L260.06-26.9Q263.14-26.9 265.55-25.87 267.97-24.83 269.36-22.75 270.75-20.68 270.75-17.55L270.75-17.55 270.75-6.52Q270.75-4.17 271.03-2.81 271.31-1.44 271.83-0.42L271.83-0.42 271.83 0 264.41 0Q263.87-1.12 263.61-2.81 263.36-4.49 263.36-6.23L263.36-6.23ZM264.31-16.16L264.36-11.91 260.6-11.91Q257.91-11.91 256.72-10.75 255.52-9.59 255.52-7.96L255.52-7.96Q255.52-6.71 256.4-5.91 257.28-5.1 258.77-5.1L258.77-5.1Q260.3-5.1 261.41-5.7 262.53-6.3 263.12-7.14 263.72-7.98 263.7-8.69L263.7-8.69 265.6-5.52Q265.21-4.54 264.56-3.49 263.92-2.44 262.92-1.54 261.92-0.63 260.49-0.07 259.06 0.49 257.13 0.49L257.13 0.49Q254.64 0.49 252.59-0.52 250.54-1.54 249.34-3.33 248.15-5.13 248.15-7.45L248.15-7.45Q248.15-11.6 251.22-13.88 254.3-16.16 260.38-16.16L260.38-16.16 264.31-16.16ZM286.01-20.78L286.01 0 278.64 0 278.64-26.42 285.57-26.42 286.01-20.78ZM284.98-14.09L282.98-13.99Q282.98-17.99 284.28-20.89 285.57-23.78 287.91-25.34 290.26-26.9 293.36-26.9L293.36-26.9Q295.85-26.9 297.72-25.93 299.58-24.95 300.65-22.74 301.71-20.53 301.71-16.75L301.71-16.75 301.71 0 294.31 0 294.31-16.8Q294.31-18.43 293.83-19.32 293.36-20.21 292.45-20.57 291.55-20.92 290.23-20.92L290.23-20.92Q288.89-20.92 287.9-20.42 286.91-19.92 286.27-18.99 285.62-18.07 285.3-16.81 284.98-15.55 284.98-14.09L284.98-14.09ZM325.17-5.88L325.17-37.5 332.59-37.5 332.59 0 325.92 0 325.17-5.88ZM308.59-12.89L308.59-13.4Q308.59-17.43 309.8-20.47 311.01-23.51 313.31-25.21 315.62-26.9 318.94-26.9L318.94-26.9Q322.04-26.9 324.13-25.13 326.22-23.36 327.43-20.3 328.63-17.24 329.1-13.35L329.1-13.35 329.1-12.74Q328.63-9.06 327.43-6.05 326.22-3.05 324.13-1.28 322.04 0.49 318.89 0.49L318.89 0.49Q315.62 0.49 313.31-1.26 311.01-3 309.8-6.03 308.59-9.06 308.59-12.89L308.59-12.89ZM315.96-13.4L315.96-12.89Q315.96-10.84 316.43-9.16 316.89-7.47 317.94-6.48 318.99-5.49 320.77-5.49L320.77-5.49Q322.53-5.49 323.65-6.29 324.78-7.08 325.36-8.5 325.95-9.91 326.05-11.77L326.05-11.77 326.05-14.31Q326-15.89 325.64-17.13 325.29-18.36 324.67-19.2 324.04-20.04 323.08-20.48 322.12-20.92 320.82-20.92L320.82-20.92Q319.06-20.92 317.99-19.93 316.92-18.95 316.44-17.25 315.96-15.55 315.96-13.4L315.96-13.4ZM356.41-35.55L369.79-35.55Q373.92-35.55 376.88-34.31 379.85-33.08 381.44-30.7 383.02-28.32 383.02-24.8L383.02-24.8Q383.02-21.88 382.06-19.82 381.09-17.77 379.36-16.43 377.63-15.09 375.28-14.26L375.28-14.26 372.84-12.87 361.44-12.87 361.39-19.07 369.77-19.07Q371.62-19.07 372.87-19.69 374.11-20.31 374.72-21.46 375.33-22.61 375.33-24.17L375.33-24.17Q375.33-26.56 373.98-27.95 372.62-29.35 369.79-29.35L369.79-29.35 364.08-29.35 364.08 0 356.41 0 356.41-35.55ZM376.09 0L368.08-15.8 376.19-15.84 384.32-0.37 384.32 0 376.09 0ZM403.11 0.49L403.11 0.49Q398.94 0.49 395.97-1.25 393.01-2.98 391.43-5.88 389.86-8.79 389.86-12.3L389.86-12.3 389.86-13.26Q389.86-17.21 391.36-20.3 392.86-23.39 395.64-25.15 398.43-26.9 402.28-26.9L402.28-26.9Q406.12-26.9 408.73-25.29 411.34-23.68 412.68-20.76 414.03-17.85 414.03-13.92L414.03-13.92 414.03-10.79 392.96-10.79 392.96-15.75 406.78-15.75 406.78-16.33Q406.78-17.7 406.29-18.75 405.8-19.8 404.81-20.39 403.82-20.97 402.23-20.97L402.23-20.97Q400.43-20.97 399.33-19.95 398.23-18.92 397.73-17.19 397.23-15.45 397.23-13.26L397.23-13.26 397.23-12.3Q397.23-10.28 397.99-8.74 398.74-7.2 400.16-6.34 401.58-5.47 403.58-5.47L403.58-5.47Q405.46-5.47 407.09-6.16 408.73-6.86 409.88-8.35L409.88-8.35 413.44-4.27Q412.2-2.49 409.6-1 407 0.49 403.11 0.49ZM428.45-37.5L428.45 0 421.06 0 421.06-37.5 428.45-37.5ZM451.03-6.23L451.03-17.6Q451.03-19.38 450.15-20.43 449.28-21.48 447.35-21.48L447.35-21.48Q446.25-21.48 445.44-21.12 444.64-20.75 444.22-20.08 443.81-19.41 443.81-18.43L443.81-18.43 436.43-18.43Q436.43-20.78 437.83-22.69 439.22-24.61 441.76-25.76 444.29-26.9 447.74-26.9L447.74-26.9Q450.81-26.9 453.23-25.87 455.65-24.83 457.04-22.75 458.43-20.68 458.43-17.55L458.43-17.55 458.43-6.52Q458.43-4.17 458.71-2.81 458.99-1.44 459.5-0.42L459.5-0.42 459.5 0 452.08 0Q451.55-1.12 451.29-2.81 451.03-4.49 451.03-6.23L451.03-6.23ZM451.99-16.16L452.03-11.91 448.27-11.91Q445.59-11.91 444.39-10.75 443.2-9.59 443.2-7.96L443.2-7.96Q443.2-6.71 444.08-5.91 444.95-5.1 446.44-5.1L446.44-5.1Q447.98-5.1 449.09-5.7 450.2-6.3 450.8-7.14 451.4-7.98 451.38-8.69L451.38-8.69 453.28-5.52Q452.89-4.54 452.24-3.49 451.59-2.44 450.59-1.54 449.59-0.63 448.16-0.07 446.74 0.49 444.81 0.49L444.81 0.49Q442.32 0.49 440.27-0.52 438.22-1.54 437.02-3.33 435.82-5.13 435.82-7.45L435.82-7.45Q435.82-11.6 438.9-13.88 441.98-16.16 448.05-16.16L448.05-16.16 451.99-16.16ZM472.54-26.42L476.69-18.77 480.94-26.42 488.77-26.42 481.4-13.5 489.09 0 481.23 0 476.69-8.11 472.22 0 464.31 0 472.03-13.5 464.65-26.42 472.54-26.42Z" opacity="1" transform="matrix(1,0,0,1,0,0)" fill="#ffffff" class="undefined-text-1" data-fill-palette-color="secondary" id="text-1"></path></svg></g></svg></g></svg></g></svg></g><g></g></svg></g></svg></g></svg></g></svg></g></svg><rect width="395.52" height="247.2" fill="none" stroke="none" visibility="hidden"></rect></g></svg></g></svg>