<svg xmlns="http://www.w3.org/2000/svg" version="1.1" xmlns:xlink="http://www.w3.org/1999/xlink" xmlns:svgjs="http://svgjs.dev/svgjs" width="1000" height="1000" viewBox="0 0 1000 1000"><rect width="1000" height="1000" fill="#000000"></rect><g transform="matrix(0.7,0,0,0.7,149.57575757575756,393.8398558502356)"><svg viewBox="0 0 396 120" data-background-color="#000000" preserveAspectRatio="xMidYMid meet" height="303" width="1000" xmlns="http://www.w3.org/2000/svg" xmlns:xlink="http://www.w3.org/1999/xlink"><defs></defs><g id="tight-bounds" transform="matrix(1,0,0,1,0.2400000000000091,0.062318801660467216)"><svg viewBox="0 0 395.52 119.87536452022914" height="119.87536452022914" width="395.52"><g><svg viewBox="0 0 673.9738267176745 204.26996904044037" height="119.87536452022914" width="395.52"><g transform="matrix(1,0,0,1,276.47622671767465,0)"><svg viewBox="0 0 397.49759999999986 204.26996904044037" height="204.26996904044037" width="397.49759999999986"><g><svg viewBox="0 0 397.49759999999986 204.26996904044037" height="204.26996904044037" width="397.49759999999986"><g><rect width="397.49759999999986" height="11.774275188551751" x="0" y="144.43287690239998" fill="#ffffff" opacity="1" stroke-width="0" stroke="transparent" fill-opacity="1" class="rect-o-0" data-fill-palette-color="primary" rx="1%" id="o-0" data-palette-color="#ffffff"></rect></g><g transform="matrix(1,0,0,1,0.9887999999999693,0)"><svg viewBox="0 0 395.5199999999999 130.56265743944635" height="130.56265743944635" width="395.5199999999999"><g transform="matrix(1,0,0,1,0,0)"><svg width="395.5199999999999" viewBox="10.800000190734863 -41.599998474121094 144.489990234375 47.69999694824219" height="130.56265743944635" data-palette-color="#ffffff"><path d="M14.95-30.3L14.95-30.3Q12.95-30.3 11.88-31.43 10.8-32.55 10.8-34.15L10.8-34.15Q10.8-34.55 10.93-35.1 11.05-35.65 11.25-36.05L11.25-36.05Q11.9-35.75 13.18-35.63 14.45-35.5 16.15-35.5L16.15-35.5Q18.7-35.5 21.93-35.73 25.15-35.95 28.1-36.2 31.05-36.45 33.3-36.68 35.55-36.9 36.2-36.9L36.2-36.9Q38.05-36.9 38.88-35.52 39.7-34.15 40.1-31.85L40.1-31.85Q38.8-31.95 37.52-32.02 36.25-32.1 35.35-32.1L35.35-32.1Q33.75-32.1 32.13-32 30.5-31.9 28.85-31.7L28.85-31.7Q28.15-30.25 27.3-28.28 26.45-26.3 25.63-24.15 24.8-22 24.05-19.88 23.3-17.75 22.75-16.05L22.75-16.05Q21.65-12.75 20.83-9.95 20-7.15 19.38-4.73 18.75-2.3 18.3-0.1 17.85 2.1 17.5 4.2L17.5 4.2Q14.15 3.7 11.9 0L11.9 0Q12.3-1.55 12.88-3.38 13.45-5.2 14.23-7.53 15-9.85 16.05-12.8 17.1-15.75 18.45-19.5L18.45-19.5Q18.95-20.9 19.5-22.43 20.05-23.95 20.58-25.45 21.1-26.95 21.53-28.35 21.95-29.75 22.25-30.9L22.25-30.9Q20.15-30.65 18.28-30.48 16.4-30.3 14.95-30.3ZM34.45 1.75L34.45 1.75Q31.6 1.45 29.9-0.75 28.2-2.95 28.2-6.35L28.2-6.35Q28.2-8.35 28.8-10.5 29.4-12.65 30.5-14.68 31.6-16.7 33.1-18.5 34.6-20.3 36.35-21.6L36.35-21.6Q39.1-23.65 41.5-23.65L41.5-23.65Q43.1-22.8 44.65-20.1L44.65-20.1Q44.9-20.1 45.1-20.13 45.3-20.15 45.55-20.15L45.55-20.15Q48.2-20.15 48.2-15.45L48.2-15.45Q48.2-12.3 47.17-9.47 46.15-6.65 44.32-4.35 42.5-2.05 39.97-0.48 37.45 1.1 34.45 1.75ZM37-14L37-14Q36.15-12.85 35.4-11.5 34.65-10.15 34.1-8.78 33.55-7.4 33.25-6.13 32.95-4.85 32.95-3.85L32.95-3.85Q32.95-2.65 33.35-1.55 33.75-0.45 34.25-0.3L34.25-0.3Q36.5-0.8 38.37-2.18 40.25-3.55 41.62-5.6 43-7.65 43.77-10.25 44.55-12.85 44.55-15.8L44.55-15.8Q44.55-17.1 44.4-17.85 44.25-18.6 43.9-19.15L43.9-19.15Q41.7-18.5 39.97-17.05 38.25-15.6 37-14ZM50.7-4.7L50.7-4.7Q50.7-6.5 51.62-9.7 52.55-12.9 54.05-16.7 55.55-20.5 57.45-24.55 59.35-28.6 61.27-32.1 63.2-35.6 64.97-38.15 66.75-40.7 68-41.6L68-41.6Q68.7-41.55 69.52-41 70.34-40.45 71.05-39.68 71.75-38.9 72.22-38.05 72.7-37.2 72.7-36.5L72.7-36.5Q70.45-34.7 68.12-31.88 65.8-29.05 63.7-25.68 61.6-22.3 59.82-18.53 58.05-14.75 56.85-11.1L56.85-11.1Q58.45-13.85 60.2-16.1 61.95-18.35 63.7-19.95 65.45-21.55 67.12-22.43 68.8-23.3 70.3-23.35L70.3-23.35Q72.5-21.75 72.5-19.1L72.5-19.1Q72.5-17.5 71.84-15.88 71.2-14.25 70.12-12.88 69.05-11.5 67.67-10.53 66.3-9.55 64.8-9.25L64.8-9.25Q65.3-7.5 66.07-5.7 66.84-3.9 67.92-2.2 69-0.5 70.37 0.95 71.75 2.4 73.5 3.4L73.5 3.4Q73.25 3.9 72.75 4.4 72.25 4.9 71.55 5.28 70.84 5.65 70.02 5.88 69.2 6.1 68.4 6.1L68.4 6.1Q67.05 6.1 65.87 4.75 64.7 3.4 63.75 0.85L63.75 0.85Q63-1.2 62.3-4.05 61.6-6.9 61.05-10L61.05-10Q61.75-10.45 62.8-11.33 63.85-12.2 65-13.35L65-13.35Q69.4-17.6 69.4-20.7L69.4-20.7Q69.4-21.1 68.84-21.1L68.84-21.1Q67.84-21.05 66.5-20.15 65.15-19.25 63.62-17.65 62.1-16.05 60.52-13.9 58.95-11.75 57.5-9.25L57.5-9.25Q56.9-8.25 56.4-6.95 55.9-5.65 55.52-4.28 55.15-2.9 54.95-1.55 54.75-0.2 54.75 0.95L54.75 0.95Q54.75 1.65 54.9 2.1L54.9 2.1Q53.35 1.95 53 1.3L53 1.3Q52.6 0.7 52.32 0.33 52.05-0.05 51.75-0.3L51.75-0.3Q51.3-0.65 51-1.8 50.7-2.95 50.7-4.7ZM93.09-20.7L93.09-20.7Q92.89-17.6 91.99-15.38 91.09-13.15 89.42-11.48 87.74-9.8 85.34-8.45 82.94-7.1 79.74-5.85L79.74-5.85Q79.74-5.55 79.72-5.23 79.69-4.9 79.69-4.55L79.69-4.55Q79.69-3.9 79.79-3.2 79.89-2.5 80.14-1.9 80.39-1.3 80.84-0.93 81.29-0.55 81.99-0.55L81.99-0.55Q83.34-0.55 84.64-1.15 85.94-1.75 87.12-2.63 88.29-3.5 89.32-4.53 90.34-5.55 91.14-6.4L91.14-6.4Q91.64-5.95 91.99-5.55L91.99-5.55Q89.74-2.55 87.07-0.58 84.39 1.4 81.99 1.95L81.99 1.95Q78.54 1.55 76.62-0.58 74.69-2.7 74.69-5.7L74.69-5.7Q74.69-7.75 75.27-9.88 75.84-12 76.87-13.98 77.89-15.95 79.27-17.7 80.64-19.45 82.22-20.75 83.79-22.05 85.47-22.8 87.14-23.55 88.79-23.55L88.79-23.55Q91.09-23.25 93.09-20.7ZM89.64-19.05L89.64-19.05Q88.29-18.85 86.84-17.95 85.39-17.05 84.12-15.55 82.84-14.05 81.79-12.05 80.74-10.05 80.14-7.75L80.14-7.75Q84.14-9.75 86.79-12.68 89.44-15.6 89.64-19.05ZM103.49-24.25L103.49-24.25Q104.79-23.85 105.94-22.48 107.09-21.1 107.64-19.45L107.64-19.45Q107.09-18.1 105.94-16.2 104.79-14.3 103.64-12.33 102.49-10.35 101.57-8.58 100.64-6.8 100.49-5.65L100.49-5.65Q101.29-6.5 102.27-7.63 103.24-8.75 104.17-9.88 105.09-11 105.89-11.93 106.69-12.85 107.14-13.3L107.14-13.3Q108.09-14.3 109.39-15.63 110.69-16.95 112.12-18.13 113.54-19.3 114.99-20.13 116.44-20.95 117.64-20.95L117.64-20.95Q118.94-20.95 119.82-20.08 120.69-19.2 121.19-18.25L121.19-18.25Q121.19-18.15 120.82-17.98 120.44-17.8 119.74-17L119.74-17Q119.04-16.1 118.17-14.53 117.29-12.95 116.47-11.13 115.64-9.3 115.09-7.4 114.54-5.5 114.54-3.95L114.54-3.95Q114.54-2.7 114.87-2.35 115.19-2 115.79-2L115.79-2Q116.34-2 116.94-2.25 117.54-2.5 117.89-2.5L117.89-2.5Q118.09-2.4 118.22-2.08 118.34-1.75 118.34-1.5L118.34-1.5Q117.94-1.15 117.39-0.8 116.84-0.45 116.24-0.15 115.64 0.15 115.07 0.35 114.49 0.55 114.04 0.55L114.04 0.55Q112.59 0.55 111.67 0.13 110.74-0.3 110.22-1 109.69-1.7 109.49-2.68 109.29-3.65 109.29-4.75L109.29-4.75Q109.29-5.35 109.39-6.1 109.49-6.85 109.79-7.88 110.09-8.9 110.64-10.33 111.19-11.75 112.04-13.75L112.04-13.75Q111.94-13.75 110.69-13.05 109.44-12.35 107.99-10.9L107.99-10.9Q105.64-8.65 103.77-6.45 101.89-4.25 99.94-1.55L99.94-1.55Q98.84 0 98.02 1.07 97.19 2.15 96.59 2.5L96.59 2.5Q95.54 1.9 95.04 0.83 94.54-0.25 94.29-1.4L94.29-1.4Q94.29-2.35 94.57-3.8 94.84-5.25 95.32-7.03 95.79-8.8 96.49-10.75 97.19-12.7 98.04-14.65L98.04-14.65Q99.94-19.05 101.52-21.55 103.09-24.05 103.49-24.25ZM122.44-3.35L122.44-3.35Q122.44-3.8 122.51-4.48 122.59-5.15 122.79-6.28 122.99-7.4 123.31-9 123.64-10.6 124.14-12.85L124.14-12.85Q124.24-13.35 124.59-14.45 124.94-15.55 125.51-16.78 126.09-18 126.91-19.15 127.74-20.3 128.89-20.85L128.89-20.85Q129.74-20.65 131.14-19.83 132.54-19 133.54-17.55L133.54-17.55Q132.39-16.25 131.61-14.95 130.84-13.65 130.21-12.25 129.59-10.85 129.06-9.35 128.54-7.85 127.89-6.2L127.89-6.2Q127.34-4.8 126.89-3.33 126.44-1.85 126.39-0.75L126.39-0.75Q126.39 0.15 126.36 0.53 126.34 0.9 126.09 0.9L126.09 0.9Q125.89 0.9 125.29 0.65 124.69 0.4 124.06-0.13 123.44-0.65 122.94-1.45 122.44-2.25 122.44-3.35ZM131.99-25.05L131.99-25.05Q131.99-25.35 132.14-25.95L132.14-25.95Q131.89-26.2 131.71-26.7 131.54-27.2 131.54-27.6L131.54-27.6Q131.54-28.05 131.66-28.83 131.79-29.6 131.99-30.5 132.19-31.4 132.49-32.38 132.79-33.35 133.09-34.15L133.09-34.15Q133.69-34.15 134.56-33.83 135.44-33.5 136.34-32.98 137.24-32.45 137.99-31.83 138.74-31.2 139.14-30.65L139.14-30.65Q138.59-30.1 137.69-29.13 136.79-28.15 135.94-27.08 135.09-26 134.39-25.05 133.69-24.1 133.49-23.7L133.49-23.7Q132.89-23.8 132.44-24.23 131.99-24.65 131.99-25.05ZM132.39-0.7L132.39-0.7Q132.39-1.5 133.78-3.28 135.19-5.05 137.51-7.33 139.84-9.6 142.86-12.13 145.89-14.65 149.14-17L149.14-17Q147.03-17.45 145.81-17.65 144.59-17.85 143.84-17.85L143.84-17.85Q142.39-17.85 141.24-17.45 140.09-17.05 138.99-16.15L138.99-16.15Q136.69-18.15 136.69-20.75L136.69-20.75Q136.69-21.55 136.74-21.7L136.74-21.7Q137.59-22.55 138.76-23 139.94-23.45 141.24-23.45L141.24-23.45Q142.64-23.45 144.09-23 145.53-22.55 146.94-22.03 148.34-21.5 149.56-21.05 150.79-20.6 151.74-20.6L151.74-20.6Q152.29-20.6 152.96-20.75 153.64-20.9 154.09-21.15L154.09-21.15Q154.54-20.8 154.91-19.75 155.29-18.7 155.29-17.7L155.29-17.7Q153.74-17.1 151.56-15.6 149.39-14.1 147.14-12.15 144.89-10.2 142.76-8 140.64-5.8 139.24-3.85L139.24-3.85Q140.28-3.4 142.09-3.4L142.09-3.4Q143.24-3.4 144.44-3.6 145.64-3.8 146.76-4.15 147.89-4.5 148.84-4.98 149.79-5.45 150.44-6L150.44-6Q152.79-4.5 152.79-1.6L152.79-1.6Q152.79-1.2 152.76-0.95 152.74-0.7 152.69-0.35L152.69-0.35Q150.39 1.1 147.69 1.1L147.69 1.1Q146.34 1.1 144.99 0.83 143.64 0.55 142.36 0.25 141.09-0.05 139.96-0.33 138.84-0.6 137.89-0.6L137.89-0.6Q135.49-0.6 133.99 1.65L133.99 1.65Q133.34 1.4 132.91 0.75 132.49 0.1 132.39-0.7Z" opacity="1" transform="matrix(1,0,0,1,0,0)" fill="#ffffff" class="undefined-text-0" data-fill-palette-color="primary" id="text-0"></path></svg></g></svg></g><g transform="matrix(1,0,0,1,76.53311999999994,170.07737155390535)"><svg viewBox="0 0 244.43135999999998 34.192597486535" height="34.192597486535" width="244.43135999999998"><g transform="matrix(1,0,0,1,0,0)"><svg width="244.43135999999998" viewBox="-0.3500000238418579 -39.20000076293945 334.1700134277344 46.75" height="34.192597486535" data-palette-color="#e1e1e1"><path d="M45.35-35.4L45.35-35.4 45.35-34.4Q44.4-34.2 43.25-33.27 42.1-32.35 41.4-30.05L41.4-30.05 31.95 0.25Q31.85 0.25 31.75 0.25 31.65 0.25 31.55 0.25L31.55 0.25Q31.45 0.25 31.35 0.25 31.25 0.25 31.15 0.25L31.15 0.25 20.55-31.2Q19.9-33.15 19.1-33.75 18.3-34.35 17.6-34.4L17.6-34.4 17.6-35.4Q18.5-35.35 19.85-35.3 21.2-35.25 22.45-35.25L22.45-35.25Q24.4-35.25 26.1-35.3 27.8-35.35 28.85-35.4L28.85-35.4 28.85-34.4Q27.35-34.35 26.48-34.1 25.6-33.85 25.48-33 25.35-32.15 25.95-30.2L25.95-30.2 33.4-7.15 32.7-6.55 39.3-27.3Q40.2-30.05 40.13-31.58 40.05-33.1 39-33.73 37.95-34.35 35.85-34.4L35.85-34.4 35.85-35.4Q37.3-35.35 38.8-35.3 40.3-35.25 41.6-35.25L41.6-35.25Q42.9-35.25 43.75-35.3 44.6-35.35 45.35-35.4ZM10.4-35.4L10.4-35.4 10.4-34.4Q9.1-34.3 8.53-33.9 7.95-33.5 7.98-32.63 8-31.75 8.5-30.2L8.5-30.2 16.25-6.55 15-5.3 22-27.65 22.75-26.45 14.5 0.25Q14.4 0.25 14.3 0.25 14.2 0.25 14.1 0.25L14.1 0.25Q14 0.25 13.9 0.25 13.8 0.25 13.7 0.25L13.7 0.25 3.1-31.2Q2.45-33.15 1.45-33.75 0.45-34.35-0.35-34.4L-0.35-34.4-0.35-35.4Q0.65-35.35 2.13-35.3 3.6-35.25 5-35.25L5-35.25Q6.65-35.25 8.08-35.3 9.5-35.35 10.4-35.4ZM55.4-26.45L55.4-26.45Q59.8-26.45 62.27-23.78 64.75-21.1 64.75-15.45L64.75-15.45 47.1-15.45 47.05-16.4 59.95-16.4Q60.05-18.85 59.55-20.93 59.05-23 57.97-24.25 56.9-25.5 55.2-25.5L55.2-25.5Q52.9-25.5 51.12-23.2 49.35-20.9 49-15.9L49-15.9 49.15-15.7Q49.05-14.95 49-14.05 48.95-13.15 48.95-12.25L48.95-12.25Q48.95-8.85 50.05-6.4 51.15-3.95 52.92-2.68 54.7-1.4 56.6-1.4L56.6-1.4Q58.85-1.4 60.75-2.5 62.65-3.6 63.95-6.4L63.95-6.4 64.95-6Q64.4-4.35 63.15-2.8 61.9-1.25 60-0.28 58.1 0.7 55.6 0.7L55.6 0.7Q52 0.7 49.42-0.95 46.85-2.6 45.47-5.53 44.1-8.45 44.1-12.25L44.1-12.25Q44.1-16.65 45.5-19.83 46.9-23 49.45-24.73 52-26.45 55.4-26.45ZM83.39-26.45L83.39-26.45Q87.5-26.45 90.19-23.08 92.89-19.7 92.89-12.85L92.89-12.85Q92.89-8.35 91.37-5.33 89.84-2.3 87.3-0.8 84.75 0.7 81.75 0.7L81.75 0.7Q79.25 0.7 76.92-0.73 74.59-2.15 73.44-4.95L73.44-4.95 74.44-4.4Q75.69-2.4 77.55-1.43 79.39-0.45 81.34-0.45L81.34-0.45Q84.69-0.45 86.37-3.48 88.05-6.5 88.05-12.85L88.05-12.85Q88.05-16.9 87.39-19.6 86.75-22.3 85.39-23.63 84.05-24.95 81.94-24.95L81.94-24.95Q79.64-24.95 77.67-22.88 75.69-20.8 75.25-16.8L75.25-16.8 74.64-17.5Q75.19-21.75 77.62-24.1 80.05-26.45 83.39-26.45ZM75.59-39.15L75.59-39.15 75.59-2.6Q74.94-2.05 74.27-1.48 73.59-0.9 72.94-0.35 72.3 0.2 71.59 0.8L71.59 0.8 70.75 0.45Q70.94-0.25 71.02-0.98 71.09-1.7 71.09-2.45L71.09-2.45 71.09-33.15Q71.09-35.4 70.3-36.48 69.5-37.55 67.3-37.55L67.3-37.55 67.3-38.6Q68.89-38.45 70.39-38.45L70.39-38.45Q71.84-38.45 73.17-38.63 74.5-38.8 75.59-39.15ZM106.59-26.45L106.59-26.45Q109.69-26.45 111.74-24.93 113.79-23.4 113.79-20.75L113.79-20.75Q113.79-18.8 112.72-17.18 111.64-15.55 109.94-14.38 108.24-13.2 106.34-12.5L106.34-12.5Q108.69-12.45 110.79-11.63 112.89-10.8 114.24-9.15 115.59-7.5 115.59-4.9L115.59-4.9Q115.59-2.05 113.94 0.25 112.29 2.55 109.57 4.17 106.84 5.8 103.57 6.68 100.29 7.55 97.09 7.55L97.09 7.55 97.09 6.65Q99.64 6.6 102.09 5.83 104.54 5.05 106.52 3.6 108.49 2.15 109.67 0 110.84-2.15 110.84-4.9L110.84-4.9Q110.84-7.85 109.42-9.78 107.99-11.7 105.54-11.9L105.54-11.9Q104.79-11.6 104.22-11.38 103.64-11.15 103.19-11.15L103.19-11.15Q102.39-11.15 102.39-11.8L102.39-11.8Q102.39-12.25 102.79-12.5 103.19-12.75 103.69-12.75L103.69-12.75Q104.09-12.75 104.52-12.68 104.94-12.6 105.44-12.55L105.44-12.55Q107.49-14.1 108.39-15.98 109.29-17.85 109.29-19.75L109.29-19.75Q109.29-22.1 108.12-23.18 106.94-24.25 104.94-24.25L104.94-24.25Q102.89-24.25 101.17-23.15 99.44-22.05 98.29-19.8L98.29-19.8 97.44-20.2Q98.19-21.85 99.39-23.28 100.59-24.7 102.37-25.58 104.14-26.45 106.59-26.45ZM149.04-36.1L149.04-36.1Q152.29-36.1 154.29-35.13 156.29-34.15 158.04-32.85L158.04-32.85Q158.69-32.35 159.04-32.35L159.04-32.35Q159.99-32.35 160.29-35.4L160.29-35.4 161.44-35.4Q161.34-33.55 161.29-30.9 161.24-28.25 161.24-23.9L161.24-23.9 160.09-23.9Q159.74-26 159.24-27.95 158.74-29.9 157.59-31.3L157.59-31.3Q156.14-33.15 153.79-34.18 151.44-35.2 148.94-35.2L148.94-35.2Q146.44-35.2 144.41-33.98 142.39-32.75 140.94-30.45 139.49-28.15 138.71-24.93 137.94-21.7 137.94-17.65L137.94-17.65Q137.94-8.65 140.84-4.48 143.74-0.3 149.84-0.3L149.84-0.3Q151.64-0.3 152.96-0.83 154.29-1.35 155.04-1.85L155.04-1.85Q155.99-2.5 156.24-3.08 156.49-3.65 156.49-4.6L156.49-4.6 156.49-9.4Q156.49-11.45 156.09-12.45 155.69-13.45 154.61-13.8 153.54-14.15 151.44-14.2L151.44-14.2 151.44-15.2Q152.34-15.15 153.54-15.13 154.74-15.1 156.06-15.08 157.39-15.05 158.49-15.05L158.49-15.05Q160.14-15.05 161.46-15.1 162.79-15.15 163.69-15.2L163.69-15.2 163.69-14.2Q162.04-14.1 161.59-13.4 161.14-12.7 161.14-9.9L161.14-9.9 161.14 0 160.14 0Q160.09-0.85 159.76-1.85 159.44-2.85 158.79-2.85L158.79-2.85Q158.49-2.85 158.19-2.7 157.89-2.55 157.14-2L157.14-2Q155.49-0.75 153.64-0.03 151.79 0.7 149.34 0.7L149.34 0.7Q141.59 0.7 137.26-4.03 132.94-8.75 132.94-17.1L132.94-17.1Q132.94-22.95 135.04-27.2 137.14-31.45 140.76-33.77 144.39-36.1 149.04-36.1ZM172.54-38.25L172.54-38.25Q173.84-38.25 174.79-37.3 175.74-36.35 175.74-35.05L175.74-35.05Q175.74-33.75 174.79-32.8 173.84-31.85 172.54-31.85L172.54-31.85Q171.24-31.85 170.29-32.8 169.34-33.75 169.34-35.05L169.34-35.05Q169.34-36.35 170.29-37.3 171.24-38.25 172.54-38.25ZM175.14-26.3L175.14-26.3 175.14-4.65Q175.14-2.55 176.01-1.8 176.89-1.05 178.94-1.05L178.94-1.05 178.94 0Q178.09-0.05 176.36-0.13 174.64-0.2 172.89-0.2L172.89-0.2Q171.19-0.2 169.44-0.13 167.69-0.05 166.84 0L166.84 0 166.84-1.05Q168.89-1.05 169.76-1.8 170.64-2.55 170.64-4.65L170.64-4.65 170.64-20.3Q170.64-22.55 169.84-23.63 169.04-24.7 166.84-24.7L166.84-24.7 166.84-25.75Q168.44-25.6 169.94-25.6L169.94-25.6Q171.39-25.6 172.71-25.78 174.04-25.95 175.14-26.3ZM193.83-39.1L193.83-39.1Q195.23-39.1 196.31-38.73 197.38-38.35 198.18-37.75L198.18-37.75Q198.93-37.15 199.33-36.35 199.73-35.55 199.73-34.65L199.73-34.65Q199.73-33.5 198.98-32.75 198.23-32 197.08-32L197.08-32Q195.98-32 195.16-32.73 194.33-33.45 194.33-34.7L194.33-34.7Q194.33-35.75 194.91-36.4 195.48-37.05 196.43-37.25L196.43-37.25Q196.28-37.7 195.66-38.02 195.03-38.35 193.98-38.35L193.98-38.35Q192.83-38.35 192.01-37.85 191.18-37.35 190.73-36.5L190.73-36.5Q190.13-35.45 189.98-33.38 189.83-31.3 189.83-27L189.83-27 189.83-25.7 195.18-25.7 195.18-24.7 189.83-24.7 189.83-5.15Q189.83-2.7 191.26-1.88 192.68-1.05 195.13-1.05L195.13-1.05 195.13 0Q193.98-0.05 191.88-0.13 189.78-0.2 187.43-0.2L187.43-0.2Q185.73-0.2 184.06-0.13 182.38-0.05 181.53 0L181.53 0 181.53-1.05Q183.58-1.05 184.46-1.8 185.33-2.55 185.33-4.65L185.33-4.65 185.33-24.7 181.33-24.7 181.33-25.7 185.33-25.7Q185.33-30.15 185.91-32.52 186.48-34.9 187.88-36.6L187.88-36.6Q188.88-37.75 190.43-38.43 191.98-39.1 193.83-39.1ZM206.13-34.05L206.13-34.05 206.13-25.7 213.53-25.7 213.53-24.7 206.13-24.7 206.13-5.35Q206.13-3 206.98-2.05 207.83-1.1 209.33-1.1L209.33-1.1Q210.83-1.1 211.93-2.33 213.03-3.55 213.83-6.45L213.83-6.45 214.83-6.2Q214.33-3.3 212.86-1.3 211.38 0.7 208.33 0.7L208.33 0.7Q206.63 0.7 205.53 0.28 204.43-0.15 203.58-0.95L203.58-0.95Q202.48-2.1 202.06-3.7 201.63-5.3 201.63-7.95L201.63-7.95 201.63-24.7 196.83-24.7 196.83-25.7 201.63-25.7 201.63-33.35Q202.88-33.4 204.03-33.55 205.18-33.7 206.13-34.05ZM228.28-26.45L228.28-26.45Q229.88-26.45 231.38-26.05 232.88-25.65 234.08-24.85L234.08-24.85Q235.23-24.1 235.83-23.13 236.43-22.15 236.43-21L236.43-21Q236.43-19.65 235.68-18.93 234.93-18.2 233.78-18.2L233.78-18.2Q232.68-18.2 231.85-18.85 231.03-19.5 231.03-20.7L231.03-20.7Q231.03-21.85 231.65-22.55 232.28-23.25 233.13-23.45L233.13-23.45Q232.63-24.35 231.35-24.95 230.08-25.55 228.63-25.55L228.63-25.55Q227.38-25.55 226.13-24.95 224.88-24.35 223.83-22.98 222.78-21.6 222.13-19.23 221.48-16.85 221.48-13.3L221.48-13.3Q221.48-8.9 222.48-6.3 223.48-3.7 225.1-2.58 226.73-1.45 228.68-1.45L228.68-1.45Q230.63-1.45 232.63-2.6 234.63-3.75 235.93-6.6L235.93-6.6 236.88-6.25Q236.38-4.65 235.23-3.03 234.08-1.4 232.23-0.35 230.38 0.7 227.68 0.7L227.68 0.7Q224.58 0.7 222.08-0.9 219.58-2.5 218.1-5.48 216.63-8.45 216.63-12.55L216.63-12.55Q216.63-16.65 218.1-19.78 219.58-22.9 222.23-24.68 224.88-26.45 228.28-26.45ZM246.78 0.35L246.78 0.35Q243.53 0.35 242.05-1.28 240.58-2.9 240.58-5.6L240.58-5.6Q240.58-7.7 241.6-9.08 242.63-10.45 244.23-11.33 245.83-12.2 247.6-12.83 249.38-13.45 250.98-14.05 252.58-14.65 253.6-15.4 254.63-16.15 254.63-17.3L254.63-17.3 254.63-20.4Q254.63-22.5 254-23.6 253.38-24.7 252.33-25.08 251.28-25.45 249.98-25.45L249.98-25.45Q248.73-25.45 247.3-25.1 245.88-24.75 245.03-23.65L245.03-23.65Q245.98-23.45 246.68-22.65 247.38-21.85 247.38-20.6L247.38-20.6Q247.38-19.35 246.58-18.63 245.78-17.9 244.53-17.9L244.53-17.9Q243.08-17.9 242.4-18.82 241.73-19.75 241.73-20.9L241.73-20.9Q241.73-22.2 242.38-23 243.03-23.8 244.03-24.5L244.03-24.5Q245.18-25.3 247-25.88 248.83-26.45 251.13-26.45L251.13-26.45Q253.18-26.45 254.63-25.98 256.08-25.5 257.03-24.6L257.03-24.6Q258.33-23.4 258.73-21.68 259.13-19.95 259.13-17.55L259.13-17.55 259.13-3.65Q259.13-2.45 259.48-1.88 259.83-1.3 260.68-1.3L260.68-1.3Q261.38-1.3 261.9-1.6 262.43-1.9 262.93-2.35L262.93-2.35 263.48-1.5Q262.43-0.7 261.48-0.18 260.53 0.35 258.93 0.35L258.93 0.35Q256.33 0.35 255.48-1 254.63-2.35 254.63-4.1L254.63-4.1Q253.03-1.45 251-0.55 248.98 0.35 246.78 0.35ZM248.98-1.65L248.98-1.65Q250.48-1.65 251.93-2.53 253.38-3.4 254.63-5.45L254.63-5.45 254.63-15.25Q253.88-14.15 252.3-13.5 250.73-12.85 249.05-12.08 247.38-11.3 246.18-9.98 244.98-8.65 244.98-6.2L244.98-6.2Q244.98-3.9 246.13-2.78 247.28-1.65 248.98-1.65ZM280.52-26.45L280.52-26.45Q281.87-26.45 282.9-25.9 283.92-25.35 284.5-24.48 285.07-23.6 285.07-22.5L285.07-22.5Q285.07-21.25 284.3-20.3 283.52-19.35 282.22-19.35L282.22-19.35Q281.17-19.35 280.37-20.03 279.57-20.7 279.57-21.95L279.57-21.95Q279.57-22.9 280.1-23.58 280.62-24.25 281.27-24.65L281.27-24.65Q280.92-25.15 280.22-25.15L280.22-25.15Q278.12-25.15 276.57-23.58 275.02-22 274.15-19.8 273.27-17.6 273.27-15.75L273.27-15.75 273.27-5.15Q273.27-2.7 274.7-1.88 276.12-1.05 278.57-1.05L278.57-1.05 278.57 0Q277.42-0.05 275.32-0.13 273.22-0.2 270.87-0.2L270.87-0.2Q269.17-0.2 267.5-0.13 265.82-0.05 264.97 0L264.97 0 264.97-1.05Q267.02-1.05 267.9-1.8 268.77-2.55 268.77-4.65L268.77-4.65 268.77-20.3Q268.77-22.55 267.97-23.63 267.17-24.7 264.97-24.7L264.97-24.7 264.97-25.75Q266.57-25.6 268.07-25.6L268.07-25.6Q269.52-25.6 270.85-25.78 272.17-25.95 273.27-26.3L273.27-26.3 273.27-20.05Q273.82-21.5 274.85-22.98 275.87-24.45 277.32-25.45 278.77-26.45 280.52-26.45ZM308.97-39.2L308.97-39.2 308.97-5.45Q308.97-3.2 309.8-2.13 310.62-1.05 312.77-1.05L312.77-1.05 312.77 0Q311.22-0.15 309.67-0.15L309.67-0.15Q308.22-0.15 306.9 0 305.57 0.15 304.47 0.55L304.47 0.55 304.47-33.2Q304.47-35.45 303.67-36.52 302.87-37.6 300.67-37.6L300.67-37.6 300.67-38.65Q302.27-38.5 303.77-38.5L303.77-38.5Q305.22-38.5 306.55-38.68 307.87-38.85 308.97-39.2ZM298.47-26.45L298.47-26.45Q300.67-26.45 302.6-25.4 304.52-24.35 305.17-21.8L305.17-21.8 304.52-21.3Q303.82-23.4 302.35-24.35 300.87-25.3 298.87-25.3L298.87-25.3Q295.92-25.3 293.95-22.25 291.97-19.2 292.02-12.85L292.02-12.85Q292.02-8.8 292.8-6.13 293.57-3.45 295.1-2.13 296.62-0.8 298.82-0.8L298.82-0.8Q300.92-0.8 302.62-2.6 304.32-4.4 304.67-7.9L304.67-7.9 305.27-7.2Q304.87-3.4 302.85-1.35 300.82 0.7 297.37 0.7L297.37 0.7Q294.27 0.7 291.95-0.8 289.62-2.3 288.4-5.3 287.17-8.3 287.17-12.85L287.17-12.85Q287.17-17.4 288.75-20.43 290.32-23.45 292.9-24.95 295.47-26.45 298.47-26.45ZM324.22-26.45L324.22-26.45Q326.22-26.45 327.62-25.8 329.02-25.15 329.67-24.6L329.67-24.6Q331.32-23.25 331.67-26.4L331.67-26.4 332.82-26.4Q332.72-25 332.67-23.08 332.62-21.15 332.62-17.9L332.62-17.9 331.47-17.9Q331.17-19.75 330.44-21.5 329.72-23.25 328.32-24.38 326.92-25.5 324.67-25.5L324.67-25.5Q322.92-25.5 321.74-24.53 320.57-23.55 320.57-21.65L320.57-21.65Q320.57-20.15 321.47-19.07 322.37-18 323.82-17.07 325.27-16.15 326.97-15.05L326.97-15.05Q329.82-13.2 331.82-11.3 333.82-9.4 333.82-6.3L333.82-6.3Q333.82-4 332.62-2.45 331.42-0.9 329.49-0.1 327.57 0.7 325.27 0.7L325.27 0.7Q324.17 0.7 323.19 0.53 322.22 0.35 321.32 0L321.32 0Q320.82-0.25 320.29-0.6 319.77-0.95 319.27-1.35L319.27-1.35Q318.77-1.75 318.37-1.33 317.97-0.9 317.77 0.35L317.77 0.35 316.62 0.35Q316.72-1.25 316.77-3.55 316.82-5.85 316.82-9.65L316.82-9.65 317.97-9.65Q318.32-6.85 318.97-4.75 319.62-2.65 321.02-1.48 322.42-0.3 324.92-0.3L324.92-0.3Q326.42-0.3 327.89-1.35 329.37-2.4 329.37-5.05L329.37-5.05Q329.37-7.25 327.77-8.65 326.17-10.05 323.72-11.6L323.72-11.6Q321.92-12.75 320.34-13.9 318.77-15.05 317.79-16.5 316.82-17.95 316.82-20L316.82-20Q316.82-22.25 317.84-23.68 318.87-25.1 320.57-25.78 322.27-26.45 324.22-26.45Z" opacity="1" transform="matrix(1,0,0,1,0,0)" fill="#e1e1e1" class="undefined-text-1" data-fill-palette-color="secondary" id="text-1"></path></svg></g></svg></g></svg></g></svg></g><g transform="matrix(1,0,0,1,0,27.257640675764122)"><svg viewBox="0 0 245.65351679999992 149.75468768891213" height="149.75468768891213" width="245.65351679999992"><g><svg xmlns="http://www.w3.org/2000/svg" xmlns:xlink="http://www.w3.org/1999/xlink" version="1.1" x="0" y="0" viewBox="0 0 99.99876403808594 60.96099853515625" enable-background="new 0 0 100 100" xml:space="preserve" height="149.75468768891213" width="245.65351679999992" class="icon-icon-0" data-fill-palette-color="accent" id="icon-0"><path fill-rule="evenodd" clip-rule="evenodd" d="M0 39.844c2.843-0.592 5.438-1.747 7.792-3.443 1.539-1.107 2.78-2.488 3.789-4.093 2.609-4.148 5.604-8.009 8.778-11.737 1.859-2.183 3.465-4.557 5.098-6.91 0.92-1.325 1.829-2.661 2.993-3.792 0.936-0.909 1.987-1.62 3.306-1.84 1.209-0.202 2.37 0.03 3.491 0.463 1.107 0.428 2.195 0.906 3.293 1.356 0.949 0.389 1.96 0.506 2.963 0.622 2.916 0.336 5.835 0.64 8.753 0.95 0.158 0.017 0.331-0.009 0.484-0.056C63.008 7.636 75.273 3.903 87.54 0.17c0.195-0.06 0.393-0.114 0.589-0.17 0.331 0 0.662 0 0.993 0 0.355 0.126 0.727 0.221 1.064 0.384 0.892 0.431 1.493 1.138 1.781 2.083 2.626 8.611 5.247 17.223 7.864 25.836 0.596 1.961-0.438 3.842-2.434 4.45-5.303 1.617-10.606 3.231-15.91 4.845-7.229 2.2-14.459 4.399-21.688 6.599-2.021 0.615-3.896-0.389-4.503-2.411-0.032-0.106-0.07-0.211-0.12-0.358-0.347 0.397-0.663 0.771-0.991 1.134-0.977 1.083-2.016 1.3-3.348 0.706-0.885-0.395-1.568-1.024-2.121-1.808-0.064-0.091-0.125-0.184-0.212-0.312-0.334 0.229-0.652 0.437-0.958 0.659-0.586 0.423-1.149 0.881-1.752 1.278-0.937 0.616-1.881 0.5-2.744-0.146-1.359-1.02-1.946-2.445-2.025-4.108-0.01-0.215-0.001-0.431-0.001-0.742-0.201 0.292-0.356 0.514-0.507 0.739-1.046 1.563-2.076 3.138-3.142 4.687-1.19 1.73-2.637 3.204-4.446 4.305-1.128 0.687-2.216 1.441-3.363 2.095-0.967 0.551-2.043 0.826-3.156 0.931-0.12 0.011-0.244 0.048-0.354 0.1-3.823 1.798-7.502 3.842-10.886 6.39-1.357 1.022-2.628 2.141-3.752 3.42-0.054 0.062-0.11 0.121-0.187 0.205-0.689-0.63-1.365-1.247-2.077-1.896 3.34-3.779 7.544-6.362 11.91-8.788-1.932-0.688-3.826-1.362-5.72-2.036 0.005-0.021 0.01-0.042 0.016-0.062 0.839 0.045 1.678 0.085 2.516 0.138 1.413 0.089 2.825 0.192 4.238 0.278 0.948 0.058 1.897 0.144 2.845 0.136 1.99-0.016 3.75-0.726 5.345-1.889 0.71-0.518 1.431-1.021 2.157-1.516 1.264-0.861 2.205-2.027 3.049-3.271 1.212-1.787 2.363-3.616 3.581-5.4 0.57-0.834 1.208-1.626 1.861-2.398 0.811-0.959 1.831-1.612 3.043-1.991 2.237-0.698 4.466-1.422 6.687-2.169 1.853-0.624 3.653-1.384 5.317-2.422 0.866-0.541 1.729-1.113 2.354-1.943 1.666-2.213 0.729-4.899-1.948-5.617-0.851-0.228-1.714-0.223-2.585-0.135-2.397 0.244-4.729 0.762-6.965 1.667-3.007 1.218-5.863 2.713-8.472 4.665-1.642 1.228-3.455 2.154-5.415 2.761-1.104 0.342-2.239 0.58-3.35 0.901-2.614 0.755-4.923 2.07-6.95 3.878-1.258 1.122-2.495 2.266-3.742 3.399-0.106 0.097-0.215 0.19-0.362 0.261 0.054-0.092 0.105-0.186 0.163-0.276 0.938-1.461 1.857-2.934 2.819-4.379 0.865-1.301 2.04-2.294 3.301-3.196 1.858-1.329 3.956-2.082 6.151-2.603 1.13-0.268 2.215-0.657 3.265-1.15 0.205-0.097 0.263-0.201 0.224-0.425-0.159-0.895-0.418-1.756-0.932-2.51-1.297-1.907-1.775-4.02-1.654-6.296 0.019-0.357 0.003-0.716 0.003-1.075 0.028-0.003 0.057-0.006 0.086-0.009 0.133 0.576 0.266 1.151 0.397 1.727 0.394 1.721 1.09 3.282 2.309 4.597 0.402 0.434 0.71 0.957 1.115 1.512 0-1.069 0-2.083 0-3.095 0.048-0.005 0.096-0.011 0.144-0.016 0.298 1.334 0.596 2.668 0.894 4 1.238-0.829 2.502-1.675 3.758-2.516-0.238-0.702-0.499-1.428-0.729-2.164-0.312-0.995-0.251-1.976 0.172-2.932 0.016-0.034 0.04-0.065 0.097-0.156-0.011 0.243-0.003 0.418-0.029 0.587-0.108 0.727 0.054 1.405 0.41 2.029 0.397 0.697 0.834 1.371 1.264 2.069 2.102-1.09 4.172-2.062 6.41-2.722-0.149-0.5-0.292-0.982-0.436-1.463-0.099-0.327-0.195-0.653-0.3-0.977-0.224-0.689-0.214-1.381-0.019-2.112-0.587-0.062-1.15-0.113-1.712-0.184-2.244-0.284-4.493-0.541-6.729-0.875-1.223-0.183-2.32-0.789-3.457-1.253-0.733-0.299-1.483-0.574-2.246-0.785-0.862-0.239-1.691-0.057-2.341 0.558-0.673 0.636-1.337 1.302-1.887 2.043-1.335 1.802-2.552 3.692-3.907 5.478-1.599 2.107-3.266 4.165-4.952 6.204-2.259 2.729-4.33 5.595-6.205 8.594-2.153 3.444-5.184 5.79-8.848 7.399-1.458 0.641-2.959 1.152-4.57 1.44-0.138-0.632-0.27-1.254-0.41-1.874C0.133 40.477 0.062 40.255 0 40.031 0 39.968 0 39.907 0 39.844zM54.99 31.133c1.005 3.299 2.005 6.588 3.009 9.875 0.152 0.499 0.498 0.655 1.047 0.488 12.493-3.804 24.986-7.609 37.479-11.413 0.615-0.188 0.771-0.479 0.582-1.097-2.59-8.502-5.181-17.005-7.771-25.507-0.191-0.626-0.471-0.777-1.085-0.59-10.834 3.299-21.668 6.597-32.502 9.896-1.688 0.514-3.377 1.027-5.065 1.544-0.485 0.149-0.666 0.473-0.525 0.947 0.236 0.792 0.478 1.581 0.731 2.367 0.023 0.072 0.156 0.166 0.227 0.157 0.778-0.099 1.554-0.224 2.332-0.328 1.455-0.194 2.892-0.132 4.275 0.399 2.943 1.129 4.483 3.772 3.902 6.786-0.327 1.694-1.268 3.042-2.655 4.053-0.8 0.583-1.643 1.107-2.484 1.628C56.016 30.631 55.507 30.862 54.99 31.133zM52.352 32.119c-0.243 0.156-0.505 0.233-0.616 0.408-1.203 1.882-1.676 3.963-1.508 6.171 0.075 0.983 0.627 1.752 1.495 2.268 0.268 0.159 0.486 0.173 0.691-0.103 0.576-0.779 1.168-1.547 1.738-2.331 0.063-0.086 0.066-0.255 0.033-0.367-0.3-1.02-0.614-2.035-0.924-3.051C52.967 34.147 52.674 33.181 52.352 32.119zM48.527 33.43c-1.171 0.365-2.283 0.707-3.389 1.063-0.102 0.033-0.195 0.147-0.256 0.246-0.589 0.945-1.019 1.961-1.286 3.04-0.27 1.085-0.097 2.09 0.653 2.961 0.176 0.205 0.327 0.244 0.566 0.066 0.803-0.597 1.606-1.197 2.444-1.74 0.341-0.221 0.48-0.419 0.471-0.841C47.694 36.609 47.979 35.038 48.527 33.43z" fill="#dedede" data-fill-palette-color="accent"></path><path fill-rule="evenodd" clip-rule="evenodd" d="M54.18 20.656c-0.78 0.464-1.556 0.936-2.344 1.386-0.216 0.123-0.271 0.239-0.223 0.488 0.227 1.156 0.438 2.313 0.959 3.386 0.482 0.992 1.145 1.342 2.217 1.098 0.449-0.103 0.886-0.272 1.314-0.445 0.199-0.081 0.256-0.014 0.31 0.158-0.696 0.502-1.442 0.855-2.305 0.919-0.997 0.074-1.675-0.43-2.16-1.235-0.809-1.339-1.202-2.825-1.485-4.345-0.075-0.401 0.06-0.572 0.455-0.668 1.081-0.263 2.162-0.524 3.243-0.786C54.168 20.627 54.174 20.641 54.18 20.656z" fill="#dedede" data-fill-palette-color="accent"></path></svg></g></svg></g></svg></g></svg><rect width="395.52" height="119.87536452022914" fill="none" stroke="none" visibility="hidden"></rect></g></svg></g></svg>